<?xml version="1.0" encoding="UTF-8"?>
<svg id="katman_1" data-name="katman 1" xmlns="http://www.w3.org/2000/svg" viewBox="0 0 98.38 28.91">
  <defs>
    <style>
      .cls-1 {
        fill: #33a8df;
      }

      .cls-2 {
        fill: #1a1a1a;
      }

      .cls-3 {
        fill: #31ac69;
      }
    </style>
  </defs>
  <path class="cls-2" d="M17.49,20.42c0,.83,0,1.59,0,2.35,0,.76.01,1.52-.01,2.34-.14-.08-.23-.12-.31-.17-.45-.27-.92-.45-1.46-.43-.41.01-.78.15-1.15.33-.1.05-.2.1-.34.17-.02-.13-.05-.21-.05-.3,0-3.51-.04-7.02.01-10.53.04-2.52,1.21-4.48,3.29-5.89.91-.62,1.92-.99,3.01-1.11,3.04-.34,5.74,1.1,7.18,3.69.52.94.81,1.94.87,3.02.12,2.06-.54,3.83-1.92,5.36-.85.94-1.91,1.6-3.11,1.97-1.08.34-2.2.4-3.32.21-.85-.15-1.64-.45-2.39-.86-.07-.04-.14-.07-.3-.14ZM21.4,10.43c-2.15,0-3.91,1.77-3.91,3.86,0,2.21,1.84,3.91,3.87,3.91,2.08,0,3.88-1.64,3.88-3.89,0-2.35-1.88-3.88-3.84-3.89Z"/>
  <path class="cls-2" d="M68.47,3.85c0,.15.02.25.02.34,0,3.52.01,7.04,0,10.56,0,.95-.27,1.85-.69,2.7-.85,1.73-2.2,2.93-3.99,3.62-1.1.43-2.24.56-3.4.39-2.56-.37-4.42-1.74-5.57-4.05-.6-1.19-.81-2.48-.67-3.81.17-1.65.83-3.08,1.97-4.28.84-.88,1.85-1.5,3-1.88.6-.2,1.21-.31,1.85-.31.61,0,1.21,0,1.81.13.67.15,1.32.39,1.93.72.13.07.26.13.45.22.01-.18.02-.29.02-.41,0-1.18,0-2.37,0-3.55,0-.12.01-.23.03-.4.22.12.38.21.55.3.77.39,1.53.32,2.27-.08.12-.07.25-.13.41-.22ZM61.31,10.43c-2.03.02-3.87,1.6-3.87,3.9,0,2.2,1.76,3.86,3.85,3.88,2.11.02,3.89-1.76,3.9-3.87.01-2.2-1.81-3.91-3.89-3.91Z"/>
  <path class="cls-2" d="M74.55,15.8c-.02.42.49,1.18,1.06,1.62.52.4,1.11.64,1.76.77.67.13,1.3-.07,1.96-.28.02.16.03.26.04.37.04.47.14.91.4,1.31.34.53.84.83,1.43,1,.18.05.18.04.31.2-.12.05-.23.09-.34.13-.78.28-1.56.51-2.39.58-1.72.13-3.34-.2-4.79-1.17-1.18-.79-2.07-1.84-2.65-3.14-.31-.7-.49-1.43-.56-2.2-.06-.63-.03-1.26.06-1.87.12-.79.39-1.53.78-2.23.69-1.24,1.66-2.22,2.91-2.89,1.05-.56,2.16-.87,3.37-.86.57,0,1.13.03,1.69.16.73.17,1.42.46,2.07.84,1.31.78,2.29,1.86,2.92,3.25.42.92.62,1.89.62,2.9,0,.89-.72,1.51-1.51,1.5-.85-.01-1.71,0-2.56,0-2.07,0-4.14,0-6.21,0-.13,0-.26,0-.39.01ZM81.77,12.99c-.01-.07-.01-.12-.03-.17-.47-1.22-1.37-1.95-2.61-2.26-.83-.21-1.67-.17-2.49.12-.95.34-1.67.95-2.11,1.87-.06.13-.1.28-.15.42.27.08,7.04.1,7.39.02Z"/>
  <path class="cls-2" d="M31.04,10.44c.05.1.1.2.13.3.34,1.03,1.07,1.6,2.13,1.75.08.01.16.02.27.04-.67,1.46-.58,2.83.36,4.11.67.91,1.59,1.44,2.7,1.55,2.13.22,4.14-1.36,4.25-3.71.06-1.29-.43-2.38-1.44-3.19-1-.8-2.14-1.05-3.42-.73-.01-.12-.03-.2-.03-.29.04-1.09-.42-1.9-1.37-2.44-.03-.02-.06-.02-.08-.04-.04-.04-.1-.09-.1-.13,0-.04.07-.1.12-.12.27-.09.54-.2.82-.26,1.08-.22,2.17-.27,3.25,0,2.16.53,3.77,1.8,4.8,3.79.58,1.11.83,2.3.77,3.54-.09,1.8-.77,3.37-2,4.69-.74.79-1.63,1.38-2.65,1.76-1.21.46-2.45.56-3.73.34-1.39-.23-2.59-.84-3.62-1.78-1.01-.91-1.68-2.03-2.08-3.32-.31-1-.32-2.01-.21-3.03.1-.96.48-1.84.96-2.68.03-.04.06-.09.09-.13.01-.01.03-.02.08-.04Z"/>
  <path class="cls-2" d="M1.71,19.45c.66-.1,1.25-.2,1.73-.57.5-.38.74-.92.92-1.52.06.03.09.04.12.07.58.55,1.3.82,2.08.91.5.06.99-.04,1.44-.27.16-.08.31-.2.43-.34.31-.34.28-.76-.08-1.05-.42-.35-.92-.59-1.43-.77-.79-.29-1.59-.55-2.35-.91-.81-.38-1.55-.84-2.12-1.55-.47-.58-.69-1.24-.71-1.99-.02-1.01.26-1.91.91-2.68.56-.68,1.3-1.1,2.13-1.36,1.1-.34,2.23-.34,3.36-.18.65.09,1.27.26,1.85.57.41.22.78.49,1.06.87.44.6.47,1.43.05,1.99-.44.6-1.28.72-1.85.38-.33-.2-.68-.38-1.04-.53-.53-.22-1.1-.26-1.67-.18-.3.04-.6.12-.9.21-.13.04-.26.13-.36.23-.34.34-.29.87.1,1.16.39.29.84.42,1.3.55,1,.29,1.99.59,2.92,1.07.77.4,1.43.93,1.88,1.69.27.45.44.93.45,1.45,0,.29.02.57,0,.86-.05.95-.47,1.74-1.11,2.41-.74.78-1.67,1.21-2.71,1.43-1.01.21-2.01.15-3-.05-1.07-.22-2.05-.67-2.86-1.42-.15-.14-.31-.28-.53-.48Z"/>
  <path class="cls-2" d="M46.41,3.9c.57.31,1.08.54,1.67.51.59-.03,1.06-.33,1.6-.65,0,.18.02.29.02.41,0,2.2,0,4.4,0,6.61,0,1.9,0,3.81,0,5.71,0,.2.02.41.08.6.17.51.57.76,1.07.88.18.04.37.07.55.07.94.01,1.61.82,1.6,1.73-.01.96-.78,1.68-1.9,1.58-.78-.07-1.54-.24-2.24-.62-1.01-.55-1.73-1.34-2.16-2.4-.23-.58-.32-1.19-.32-1.81,0-4.04,0-8.09,0-12.13,0-.14.02-.28.03-.49Z"/>
  <path class="cls-2" d="M94.48,7.32c-.29.57-.49,1.08-.46,1.67.03.59.31,1.05.66,1.54-.1.03-.17.07-.24.07-.46.05-.91.12-1.35.3-1.26.51-2.08,1.44-2.52,2.71-.12.34-.16.73-.17,1.09-.02,1.64,0,3.27,0,4.91,0,.47-.14.89-.46,1.23-.81.85-2.16.53-2.66-.37-.12-.21-.17-.43-.17-.68,0-1.8-.01-3.6,0-5.4.01-1.2.4-2.3.99-3.33.75-1.3,1.81-2.28,3.14-2.96.57-.29,1.18-.48,1.81-.58.36-.06.71-.12,1.07-.17.09-.01.18-.02.36-.03Z"/>
  <path class="cls-2" d="M3.84,16.94c-.02,1.1-.81,1.92-1.92,1.92C.77,18.87,0,17.97,0,16.95c0-1.08.82-1.93,1.9-1.94,1.09,0,1.93.82,1.94,1.93Z"/>
  <path class="cls-2" d="M13.85,26.97c.02-1.03.79-1.92,1.93-1.92,1.07,0,1.91.79,1.91,1.92,0,1.14-.84,1.94-1.94,1.93-1.17-.01-1.9-.91-1.91-1.94Z"/>
  <path class="cls-2" d="M83.77,18.25c-.02,1.03-.77,1.91-1.93,1.91-1.13,0-1.9-.87-1.91-1.93,0-1.08.88-1.95,1.94-1.93,1.07.02,1.89.83,1.89,1.95Z"/>
  <path class="cls-3" d="M68.76,1.92c.02.96-.71,1.92-1.9,1.94-1.09.01-1.94-.81-1.93-1.93C64.93.77,65.77,0,66.83,0c1.22,0,1.93.97,1.92,1.92Z"/>
  <path class="cls-1" d="M46.04,1.93c.03-1.12.8-1.92,1.91-1.93,1.16-.01,1.92.89,1.93,1.91,0,1.03-.76,1.95-1.92,1.95-1.11,0-1.9-.83-1.92-1.92Z"/>
  <path class="cls-2" d="M98.38,8.84c.07,1.01-.83,1.92-1.9,1.91-1.08-.02-1.9-.84-1.92-1.91-.01-1.02.82-1.92,1.91-1.93,1.05-.01,1.99.88,1.92,1.93Z"/>
  <path class="cls-2" d="M33.54,8.12c1.01-.03,1.93.78,1.92,1.94,0,1.05-.86,1.9-1.91,1.9-1.08,0-1.94-.83-1.94-1.93,0-1.08.87-1.93,1.92-1.9Z"/>
</svg>
